<svg xmlns="http://www.w3.org/2000/svg" xmlns:xlink="http://www.w3.org/1999/xlink" width="300" zoomAndPan="magnify" viewBox="0 0 224.87999 52.499999" height="70" preserveAspectRatio="xMidYMid meet" version="1.0"><defs><g/></defs><g fill="#ffffff" fill-opacity="1"><g transform="translate(0.838438, 36.696398)"><g><path d="M 30.609375 -14.8125 C 30.679688 -14.050781 30.71875 -13.09375 30.71875 -11.9375 C 30.71875 -10.789062 30.488281 -9.390625 30.03125 -7.734375 C 29.582031 -6.085938 28.765625 -4.632812 27.578125 -3.375 C 25.148438 -0.769531 21.816406 0.53125 17.578125 0.53125 C 12.421875 0.53125 8.351562 -0.734375 5.375 -3.265625 C 2.394531 -5.804688 0.90625 -9.128906 0.90625 -13.234375 C 0.90625 -17.335938 2.414062 -20.664062 5.4375 -23.21875 C 8.457031 -25.769531 12.441406 -27.046875 17.390625 -27.046875 C 19.273438 -27.046875 21.078125 -26.851562 22.796875 -26.46875 C 24.515625 -26.09375 25.941406 -25.601562 27.078125 -25 L 27.15625 -18.484375 L 26.859375 -18.484375 C 26.421875 -20.097656 25.695312 -21.445312 24.6875 -22.53125 C 22.875 -24.476562 20.425781 -25.453125 17.34375 -25.453125 C 14.257812 -25.453125 11.773438 -24.351562 9.890625 -22.15625 C 8.015625 -19.957031 7.078125 -17.046875 7.078125 -13.421875 C 7.078125 -9.796875 8.054688 -6.847656 10.015625 -4.578125 C 11.972656 -2.304688 14.671875 -1.132812 18.109375 -1.0625 C 21.816406 -1.0625 24.769531 -2.25 26.96875 -4.625 C 29.164062 -7 30.265625 -10.21875 30.265625 -14.28125 C 30.265625 -14.457031 30.265625 -14.632812 30.265625 -14.8125 Z M 30.609375 -14.8125 "/></g></g></g><g fill="#ffffff" fill-opacity="1"><g transform="translate(30.490369, 36.696398)"><g><path d="M 32.34375 5.265625 C 34.96875 5.265625 37.085938 4.75 38.703125 3.71875 L 38.96875 4.015625 C 36.800781 7.015625 34.101562 8.679688 30.875 9.015625 C 30.1875 9.085938 29.597656 9.125 29.109375 9.125 C 28.617188 9.125 28.050781 9.101562 27.40625 9.0625 C 26.757812 9.03125 25.851562 8.863281 24.6875 8.5625 C 23.53125 8.257812 22.507812 7.945312 21.625 7.625 C 20.738281 7.3125 19.710938 6.894531 18.546875 6.375 C 17.390625 5.863281 16.429688 5.410156 15.671875 5.015625 C 14.921875 4.628906 14.019531 4.160156 12.96875 3.609375 C 11.925781 3.066406 11.007812 2.609375 10.21875 2.234375 C 9.4375 1.859375 8.679688 1.53125 7.953125 1.25 C 5.878906 0.414062 3.757812 0 1.59375 0 L 1.59375 -0.375 L 2.078125 -0.375 C 2.734375 -0.375 3.296875 -0.601562 3.765625 -1.0625 C 4.234375 -1.519531 4.476562 -2.085938 4.5 -2.765625 L 4.5 -23.75 C 4.476562 -24.425781 4.234375 -24.992188 3.765625 -25.453125 C 3.296875 -25.910156 2.734375 -26.140625 2.078125 -26.140625 L 1.59375 -26.140625 L 1.59375 -26.515625 L 13.109375 -26.515625 L 13.0625 -26.140625 L 12.6875 -26.140625 C 11.726562 -26.140625 11.007812 -25.742188 10.53125 -24.953125 C 10.300781 -24.597656 10.1875 -24.195312 10.1875 -23.75 L 10.1875 -1.78125 C 10.1875 -0.945312 10.347656 -0.367188 10.671875 -0.046875 C 11.003906 0.265625 11.375 0.484375 11.78125 0.609375 C 21.269531 3.710938 28.125 5.265625 32.34375 5.265625 Z M 32.34375 5.265625 "/></g></g></g><g fill="#ffffff" fill-opacity="1"><g transform="translate(45.031946, 36.696398)"><g><path d="M 15.296875 -0.375 L 15.78125 -0.375 L 15.78125 0 L 4.265625 0 L 4.265625 -0.375 L 4.765625 -0.375 C 5.421875 -0.375 5.984375 -0.609375 6.453125 -1.078125 C 6.921875 -1.546875 7.164062 -2.109375 7.1875 -2.765625 L 7.1875 -24.953125 L 3.59375 -24.8125 C 1.21875 -24.707031 0.03125 -23.820312 0.03125 -22.15625 C 0.03125 -21.476562 0.265625 -20.90625 0.734375 -20.4375 C 1.203125 -19.96875 1.851562 -19.734375 2.6875 -19.734375 C 2.757812 -19.734375 2.832031 -19.734375 2.90625 -19.734375 L 2.90625 -19.5 C 2.40625 -19.320312 1.976562 -19.234375 1.625 -19.234375 C 0.488281 -19.234375 -0.378906 -19.640625 -0.984375 -20.453125 C -1.421875 -21.003906 -1.640625 -21.632812 -1.640625 -22.34375 C -1.640625 -23.457031 -1.203125 -24.375 -0.328125 -25.09375 C 0.546875 -25.8125 1.890625 -26.234375 3.703125 -26.359375 C 4.035156 -26.390625 5.097656 -26.441406 6.890625 -26.515625 C 10.972656 -26.660156 13.9375 -26.910156 15.78125 -27.265625 L 15.859375 -26.890625 C 14.773438 -26.710938 14.007812 -26.34375 13.5625 -25.78125 C 13.125 -25.226562 12.894531 -24.410156 12.875 -23.328125 L 12.875 -2.765625 C 12.894531 -2.109375 13.140625 -1.546875 13.609375 -1.078125 C 14.078125 -0.609375 14.640625 -0.375 15.296875 -0.375 Z M 15.296875 -0.375 "/></g></g></g><g fill="#ffffff" fill-opacity="1"><g transform="translate(60.671769, 36.696398)"><g><path d="M 30.609375 -14.8125 C 30.679688 -14.050781 30.71875 -13.09375 30.71875 -11.9375 C 30.71875 -10.789062 30.488281 -9.390625 30.03125 -7.734375 C 29.582031 -6.085938 28.765625 -4.632812 27.578125 -3.375 C 25.148438 -0.769531 21.816406 0.53125 17.578125 0.53125 C 12.421875 0.53125 8.351562 -0.734375 5.375 -3.265625 C 2.394531 -5.804688 0.90625 -9.128906 0.90625 -13.234375 C 0.90625 -17.335938 2.414062 -20.664062 5.4375 -23.21875 C 8.457031 -25.769531 12.441406 -27.046875 17.390625 -27.046875 C 19.273438 -27.046875 21.078125 -26.851562 22.796875 -26.46875 C 24.515625 -26.09375 25.941406 -25.601562 27.078125 -25 L 27.15625 -18.484375 L 26.859375 -18.484375 C 26.421875 -20.097656 25.695312 -21.445312 24.6875 -22.53125 C 22.875 -24.476562 20.425781 -25.453125 17.34375 -25.453125 C 14.257812 -25.453125 11.773438 -24.351562 9.890625 -22.15625 C 8.015625 -19.957031 7.078125 -17.046875 7.078125 -13.421875 C 7.078125 -9.796875 8.054688 -6.847656 10.015625 -4.578125 C 11.972656 -2.304688 14.671875 -1.132812 18.109375 -1.0625 C 21.816406 -1.0625 24.769531 -2.25 26.96875 -4.625 C 29.164062 -7 30.265625 -10.21875 30.265625 -14.28125 C 30.265625 -14.457031 30.265625 -14.632812 30.265625 -14.8125 Z M 30.609375 -14.8125 "/></g></g></g><g fill="#ffffff" fill-opacity="1"><g transform="translate(90.323697, 36.696398)"><g><path d="M 2.078125 -0.375 C 2.734375 -0.375 3.296875 -0.609375 3.765625 -1.078125 C 4.234375 -1.546875 4.476562 -2.109375 4.5 -2.765625 L 4.5 -23.78125 C 4.476562 -24.695312 4.0625 -25.378906 3.25 -25.828125 C 2.90625 -26.035156 2.515625 -26.140625 2.078125 -26.140625 L 1.59375 -26.140625 L 1.59375 -26.515625 L 13.109375 -26.515625 L 13.0625 -26.140625 L 12.609375 -26.140625 C 11.953125 -26.140625 11.382812 -25.910156 10.90625 -25.453125 C 10.425781 -24.992188 10.1875 -24.4375 10.1875 -23.78125 L 10.1875 -2.765625 C 10.1875 -2.109375 10.425781 -1.546875 10.90625 -1.078125 C 11.382812 -0.609375 11.953125 -0.375 12.609375 -0.375 L 13.0625 -0.375 L 13.109375 0 L 1.59375 0 L 1.59375 -0.375 Z M 39.6875 6.4375 C 37.84375 7.394531 36.164062 7.875 34.65625 7.875 C 33.144531 7.875 31.78125 7.660156 30.5625 7.234375 C 27.5625 6.148438 24.492188 3.660156 21.359375 -0.234375 L 11.40625 -12.5 L 20.375 -24.390625 C 20.582031 -24.640625 20.6875 -24.863281 20.6875 -25.0625 C 20.6875 -25.269531 20.644531 -25.453125 20.5625 -25.609375 C 20.363281 -25.984375 20.007812 -26.171875 19.5 -26.171875 L 19.125 -26.171875 L 19.125 -26.515625 L 27.796875 -26.515625 L 27.796875 -26.171875 L 27.65625 -26.171875 C 25.957031 -26.171875 24.578125 -25.566406 23.515625 -24.359375 L 16.140625 -15.5625 L 26.4375 -2.765625 C 28.738281 0.265625 30.894531 2.460938 32.90625 3.828125 C 34.925781 5.191406 37.175781 5.9375 39.65625 6.0625 Z M 39.6875 6.4375 "/></g></g></g><g fill="#ffffff" fill-opacity="1"><g transform="translate(117.521156, 36.696398)"><g/></g></g><g fill="#ffffff" fill-opacity="1"><g transform="translate(125.359645, 36.696398)"><g/></g></g><g fill="#ffffff" fill-opacity="1"><g transform="translate(133.19879, 36.696398)"><g><path d="M 19.8125 -0.375 C 20.46875 -0.375 21.035156 -0.601562 21.515625 -1.0625 C 21.992188 -1.519531 22.242188 -2.078125 22.265625 -2.734375 L 22.265625 -12.390625 L 10.34375 -12.390625 L 10.34375 -2.65625 C 10.34375 0.375 9.570312 2.785156 8.03125 4.578125 C 6.820312 5.992188 5.078125 6.703125 2.796875 6.703125 C 2.066406 6.703125 1.273438 6.613281 0.421875 6.4375 L 0.34375 6.0625 C 2.207031 5.28125 3.40625 4.117188 3.9375 2.578125 C 4.414062 1.265625 4.65625 -0.476562 4.65625 -2.65625 L 4.65625 -23.78125 C 4.632812 -24.4375 4.390625 -24.992188 3.921875 -25.453125 C 3.453125 -25.910156 2.890625 -26.140625 2.234375 -26.140625 L 1.75 -26.140625 L 1.75 -26.515625 L 13.25 -26.515625 L 13.25 -26.140625 L 12.765625 -26.140625 C 11.859375 -26.140625 11.175781 -25.757812 10.71875 -25 C 10.488281 -24.644531 10.363281 -24.238281 10.34375 -23.78125 L 10.34375 -14.015625 L 22.265625 -14.015625 L 22.265625 -23.109375 C 22.265625 -26.054688 23.1875 -28.40625 25.03125 -30.15625 C 26.5 -31.59375 28.34375 -32.3125 30.5625 -32.3125 C 31.070312 -32.3125 31.601562 -32.269531 32.15625 -32.1875 L 32.234375 -31.8125 C 30.390625 -31.15625 29.191406 -29.992188 28.640625 -28.328125 C 28.179688 -26.960938 27.9375 -25.222656 27.90625 -23.109375 L 27.90625 -2.765625 C 27.9375 -1.859375 28.34375 -1.175781 29.125 -0.71875 C 29.5 -0.488281 29.914062 -0.375 30.375 -0.375 L 30.828125 -0.375 L 30.828125 0 L 19.359375 0 L 19.359375 -0.375 Z M 19.8125 -0.375 "/></g></g></g><g fill="#ffffff" fill-opacity="1"><g transform="translate(164.176182, 36.696398)"><g><path d="M 34.46875 -34.203125 C 34.789062 -34.203125 35.128906 -34.1875 35.484375 -34.15625 L 35.484375 -33.78125 C 32.503906 -33.550781 30.359375 -32.140625 29.046875 -29.546875 C 28.191406 -27.847656 27.765625 -25.703125 27.765625 -23.109375 L 27.765625 -9.578125 C 27.710938 -6.398438 26.6875 -3.921875 24.6875 -2.140625 C 22.695312 -0.359375 19.851562 0.53125 16.15625 0.53125 C 12.457031 0.53125 9.507812 -0.382812 7.3125 -2.21875 C 5.113281 -4.050781 4.023438 -6.492188 4.046875 -9.546875 L 4.046875 -24.28125 C 4.046875 -24.8125 3.847656 -25.253906 3.453125 -25.609375 C 3.066406 -25.960938 2.597656 -26.140625 2.046875 -26.140625 L 1.4375 -26.140625 L 1.4375 -26.515625 L 12.34375 -26.515625 L 12.34375 -26.140625 L 11.734375 -26.140625 C 10.953125 -26.140625 10.375 -25.832031 10 -25.21875 C 9.820312 -24.945312 9.734375 -24.644531 9.734375 -24.3125 L 9.734375 -9.84375 C 9.734375 -7.164062 10.425781 -5.046875 11.8125 -3.484375 C 13.207031 -1.921875 15.039062 -1.140625 17.3125 -1.140625 C 17.332031 -1.140625 17.34375 -1.140625 17.34375 -1.140625 C 17.34375 -1.140625 17.359375 -1.140625 17.390625 -1.140625 C 19.628906 -1.140625 21.46875 -1.867188 22.90625 -3.328125 C 24.351562 -4.796875 25.078125 -6.804688 25.078125 -9.359375 L 25.078125 -23.109375 C 25.078125 -26.515625 25.976562 -29.210938 27.78125 -31.203125 C 29.582031 -33.203125 31.8125 -34.203125 34.46875 -34.203125 Z M 34.46875 -34.203125 "/></g></g></g><g fill="#ffffff" fill-opacity="1"><g transform="translate(193.752365, 36.696398)"><g><path d="M 21.4375 -20 C 21.4375 -18.8125 21.140625 -17.75 20.546875 -16.8125 C 19.953125 -15.882812 19.1875 -15.242188 18.25 -14.890625 C 21.175781 -14.734375 23.3125 -13.582031 24.65625 -11.4375 C 25.332031 -10.351562 25.671875 -9.015625 25.671875 -7.421875 C 25.671875 -5.828125 25.054688 -4.375 23.828125 -3.0625 C 22.609375 -1.75 21.050781 -0.816406 19.15625 -0.265625 C 17.257812 0.285156 15.265625 0.5625 13.171875 0.5625 C 7.941406 0.5625 4.207031 -0.820312 1.96875 -3.59375 C 0.519531 -5.363281 -0.203125 -7.75 -0.203125 -10.75 C -0.203125 -11.257812 -0.175781 -11.765625 -0.125 -12.265625 L 0.265625 -12.3125 C 0.441406 -7.96875 1.992188 -4.859375 4.921875 -2.984375 L 4.921875 -23.78125 C 4.890625 -24.71875 4.472656 -25.398438 3.671875 -25.828125 C 3.316406 -26.035156 2.925781 -26.140625 2.5 -26.140625 L 2 -26.140625 L 2 -26.515625 L 11.625 -26.515625 C 14.425781 -26.515625 16.757812 -25.953125 18.625 -24.828125 C 20.5 -23.703125 21.4375 -22.09375 21.4375 -20 Z M 11.65625 -1.21875 C 14.007812 -1.21875 15.847656 -1.832031 17.171875 -3.0625 C 18.492188 -4.300781 19.15625 -5.929688 19.15625 -7.953125 C 19.15625 -9.210938 18.921875 -10.273438 18.453125 -11.140625 C 17.984375 -12.015625 17.375 -12.671875 16.625 -13.109375 C 15.226562 -13.941406 13.648438 -14.359375 11.890625 -14.359375 L 11.890625 -14.703125 C 12.691406 -14.703125 13.375 -14.988281 13.9375 -15.5625 C 14.894531 -16.570312 15.375 -17.945312 15.375 -19.6875 C 15.375 -21.4375 14.988281 -22.726562 14.21875 -23.5625 C 13.445312 -24.394531 12.238281 -24.835938 10.59375 -24.890625 L 10.59375 -1.25 C 10.945312 -1.226562 11.300781 -1.21875 11.65625 -1.21875 Z M 11.65625 -1.21875 "/></g></g></g></svg>